<?xml version="1.0" standalone="no"?><svg xmlns="http://www.w3.org/2000/svg" viewBox="0 0 1440 320"><path fill="#f3f4f5" fill-opacity="1" d="M0,96L24,80C48,64,96,32,144,42.7C192,53,240,107,288,128C336,149,384,139,432,165.3C480,192,528,256,576,277.3C624,299,672,277,720,234.7C768,192,816,128,864,138.7C912,149,960,235,1008,261.3C1056,288,1104,256,1152,218.7C1200,181,1248,139,1296,117.3C1344,96,1392,96,1416,96L1440,96L1440,320L1416,320C1392,320,1344,320,1296,320C1248,320,1200,320,1152,320C1104,320,1056,320,1008,320C960,320,912,320,864,320C816,320,768,320,720,320C672,320,624,320,576,320C528,320,480,320,432,320C384,320,336,320,288,320C240,320,192,320,144,320C96,320,48,320,24,320L0,320Z"></path></svg>