<?xml version="1.0" standalone="no"?><svg xmlns="http://www.w3.org/2000/svg" viewBox="0 0 1440 320"><path fill="#4B28DE" fill-opacity="1" d="M0,64L34.3,64C68.6,64,137,64,206,96C274.3,128,343,192,411,208C480,224,549,192,617,181.3C685.7,171,754,181,823,181.3C891.4,181,960,171,1029,176C1097.1,181,1166,203,1234,197.3C1302.9,192,1371,160,1406,144L1440,128L1440,320L1405.7,320C1371.4,320,1303,320,1234,320C1165.7,320,1097,320,1029,320C960,320,891,320,823,320C754.3,320,686,320,617,320C548.6,320,480,320,411,320C342.9,320,274,320,206,320C137.1,320,69,320,34,320L0,320Z"></path></svg>