<?xml version="1.0" standalone="no"?><svg xmlns="http://www.w3.org/2000/svg" viewBox="0 0 1440 320"><path fill="#000b76" fill-opacity="1" d="M0,0L30,16C60,32,120,64,180,90.7C240,117,300,139,360,138.7C420,139,480,117,540,117.3C600,117,660,139,720,128C780,117,840,75,900,53.3C960,32,1020,32,1080,53.3C1140,75,1200,117,1260,117.3C1320,117,1380,75,1410,53.3L1440,32L1440,320L1410,320C1380,320,1320,320,1260,320C1200,320,1140,320,1080,320C1020,320,960,320,900,320C840,320,780,320,720,320C660,320,600,320,540,320C480,320,420,320,360,320C300,320,240,320,180,320C120,320,60,320,30,320L0,320Z"></path></svg>